<?xml version="1.0" encoding="UTF-8"?>
<svg width="195px" height="74px" viewBox="0 0 195 74" version="1.1" xmlns="http://www.w3.org/2000/svg" xmlns:xlink="http://www.w3.org/1999/xlink">
    <title>Certinia_logo_blk</title>
    <defs>
        <polygon id="path-1" points="0 73.5029 194.673 73.5029 194.673 -0.0001 0 -0.0001"></polygon>
    </defs>
    <g id="Website" stroke="none" stroke-width="1" fill="none" fill-rule="evenodd">
        <g id="ManagedServices---Desktop" transform="translate(-165.000000, -1333.000000)">
            <g id="Group-39" transform="translate(165.000000, 1333.000000)">
                <path d="M35.5352,62.4316 L35.5352,60.9486 C35.5352,59.2296 36.4812,58.5676 37.6482,58.5676 C37.9172,58.5676 38.2322,58.5836 38.4842,58.6306 L38.4842,59.5616 L37.8382,59.5616 C36.8752,59.5616 36.6232,60.0496 36.6232,60.9486 L36.6232,62.4316 L38.4212,62.4316 L38.4212,63.3466 L36.6232,63.3466 L36.6232,70.0646 L35.5352,70.0646 L35.5352,63.3466 L34.3682,63.3466 L34.3682,62.4316 L35.5352,62.4316 Z" id="Fill-1" fill="#000000"></path>
                <path d="M43.0107,69.2764 C44.6357,69.2764 45.7867,68.0304 45.7867,66.2324 C45.7867,64.4664 44.6357,63.2044 43.0107,63.2044 C41.3707,63.2044 40.2357,64.4664 40.2357,66.2324 C40.2357,68.0304 41.3707,69.2764 43.0107,69.2764 M43.0107,62.2264 C45.2507,62.2264 46.8907,63.9144 46.8907,66.2484 C46.8907,68.5664 45.2507,70.2544 43.0107,70.2544 C40.7707,70.2544 39.1307,68.5664 39.1307,66.2484 C39.1307,63.9144 40.7707,62.2264 43.0107,62.2264" id="Fill-3" fill="#000000"></path>
                <path d="M52.6161,63.3149 L52.0171,63.3149 C50.6131,63.3149 49.7141,64.2609 49.7141,65.7119 L49.7141,70.0649 L48.6261,70.0649 L48.6261,62.4319 L49.6511,62.4319 L49.7301,63.6139 C50.0301,62.7939 50.8331,62.2579 51.9061,62.2579 C52.1431,62.2579 52.3481,62.2739 52.6161,62.3369 L52.6161,63.3149 Z" id="Fill-5" fill="#000000"></path>
                <path d="M54.0671,70.0649 L54.0671,62.4319 L55.0131,62.4319 L55.1391,63.5199 C55.5181,62.7159 56.3701,62.2269 57.4421,62.2269 C58.6401,62.2269 59.5401,62.8569 59.9021,63.8509 C60.2491,62.8569 61.1801,62.2269 62.4101,62.2269 C64.0661,62.2269 65.1541,63.2989 65.1541,65.0649 L65.1541,70.0649 L64.0971,70.0649 L64.0971,65.2859 C64.0971,63.9769 63.3721,63.2039 62.2051,63.2039 C60.9271,63.2039 60.1701,64.1669 60.1701,65.3489 L60.1701,70.0649 L59.0981,70.0649 L59.0981,65.2699 C59.0981,63.9769 58.3571,63.2199 57.2051,63.2199 C55.9281,63.2199 55.1551,64.1669 55.1551,65.3339 L55.1551,70.0649 L54.0671,70.0649 Z" id="Fill-7" fill="#000000"></path>
                <path d="M67.8986,65.6016 L72.8516,65.6016 C72.8516,64.1346 71.9046,63.1566 70.4696,63.1566 C69.0346,63.1566 68.0886,64.1036 67.8986,65.6016 M66.8106,66.2486 C66.8106,63.8666 68.2936,62.2266 70.4696,62.2266 C72.5356,62.2266 73.9396,63.6926 73.9396,65.8536 L73.9396,66.3906 L67.8676,66.3906 C67.9466,68.2506 68.9236,69.3236 70.5636,69.3236 C71.8096,69.3236 72.6146,68.7876 72.8986,67.7786 L73.9396,67.7786 C73.5286,69.3866 72.3466,70.2536 70.5486,70.2536 C68.3086,70.2536 66.8106,68.6456 66.8106,66.2486" id="Fill-9" fill="#000000"></path>
                <path d="M79.6647,63.3149 L79.0657,63.3149 C77.6617,63.3149 76.7627,64.2609 76.7627,65.7119 L76.7627,70.0649 L75.6747,70.0649 L75.6747,62.4319 L76.6997,62.4319 L76.7787,63.6139 C77.0787,62.7939 77.8817,62.2579 78.9547,62.2579 C79.1917,62.2579 79.3967,62.2739 79.6647,62.3369 L79.6647,63.3149 Z" id="Fill-11" fill="#000000"></path>
                <mask id="mask-2" fill="white">
                    <use xlink:href="#path-1"></use>
                </mask>
                <g id="Clip-14"></g>
                <polygon id="Fill-13" fill="#000000" mask="url(#mask-2)" points="81.163 70.0649 82.251 70.0649 82.251 58.5669 81.163 58.5669"></polygon>
                <path d="M83.797,72.4935 L84.633,72.4935 C85.295,72.4935 85.958,72.4465 86.336,71.4215 L86.667,70.5225 L83.576,62.4315 L84.727,62.4315 L87.188,69.0875 L89.601,62.4315 L90.721,62.4315 L87.219,71.8155 C86.777,73.0145 86.037,73.5025 84.948,73.5025 C84.491,73.5025 84.144,73.4715 83.797,73.3925 L83.797,72.4935 Z" id="Fill-15" fill="#000000" mask="url(#mask-2)"></path>
                <polygon id="Fill-16" fill="#000000" mask="url(#mask-2)" points="97.7386 65.097 97.7386 70.065 96.6036 70.065 96.6036 58.773 103.2586 58.773 103.2586 59.813 97.7386 59.813 97.7386 64.072 102.3606 64.072 102.3606 65.097"></polygon>
                <path d="M104.931,70.0649 L106.019,70.0649 L106.019,62.4319 L104.931,62.4319 L104.931,70.0649 Z M104.663,59.5299 C104.663,59.0879 105.026,58.7099 105.467,58.7099 C105.909,58.7099 106.287,59.0879 106.287,59.5299 C106.287,59.9709 105.909,60.3339 105.467,60.3339 C105.026,60.3339 104.663,59.9709 104.663,59.5299 L104.663,59.5299 Z" id="Fill-17" fill="#000000" mask="url(#mask-2)"></path>
                <path d="M108.2904,70.0649 L108.2904,62.4319 L109.2364,62.4319 L109.3944,63.7569 C109.8994,62.7789 110.9084,62.2269 112.0124,62.2269 C114.1104,62.2269 114.9774,63.4719 114.9774,65.3969 L114.9774,70.0649 L113.8894,70.0649 L113.8894,65.6329 C113.8894,63.8509 113.0854,63.2199 111.8234,63.2199 C110.2624,63.2199 109.3784,64.3559 109.3784,66.0749 L109.3784,70.0649 L108.2904,70.0649 Z" id="Fill-18" fill="#000000" mask="url(#mask-2)"></path>
                <path d="M122.1382,66.5951 L122.1382,66.1851 L119.8832,66.3581 C118.4472,66.4851 117.8642,67.1161 117.8642,67.9671 C117.8642,68.8981 118.5582,69.3711 119.5992,69.3711 C121.2082,69.3711 122.1382,68.2511 122.1382,66.5951 M116.7602,67.9991 C116.7602,66.5951 117.8332,65.7121 119.6152,65.5701 L122.1382,65.3651 L122.1382,65.1131 C122.1382,63.6141 121.2392,63.1411 120.1192,63.1411 C118.7952,63.1411 118.0062,63.7411 118.0062,64.7661 L117.0122,64.7661 C117.0122,63.2201 118.2742,62.2271 120.1512,62.2271 C121.9172,62.2271 123.2102,63.1091 123.2102,65.1281 L123.2102,70.0651 L122.2962,70.0651 L122.1542,68.7241 C121.6802,69.6861 120.6402,70.2541 119.3472,70.2541 C117.7222,70.2541 116.7602,69.3391 116.7602,67.9991" id="Fill-19" fill="#000000" mask="url(#mask-2)"></path>
                <path d="M125.3872,70.0649 L125.3872,62.4319 L126.3332,62.4319 L126.4912,63.7569 C126.9962,62.7789 128.0052,62.2269 129.1092,62.2269 C131.2072,62.2269 132.0742,63.4719 132.0742,65.3969 L132.0742,70.0649 L130.9862,70.0649 L130.9862,65.6329 C130.9862,63.8509 130.1822,63.2199 128.9202,63.2199 C127.3592,63.2199 126.4752,64.3559 126.4752,66.0749 L126.4752,70.0649 L125.3872,70.0649 Z" id="Fill-20" fill="#000000" mask="url(#mask-2)"></path>
                <path d="M137.4053,62.2267 C139.1713,62.2267 140.4643,63.2517 140.7643,64.8287 L139.6763,64.8287 C139.3923,63.7717 138.4773,63.1887 137.4203,63.1887 C135.8753,63.1887 134.7873,64.3717 134.7873,66.2487 C134.7873,68.0617 135.7963,69.2767 137.3413,69.2767 C138.4773,69.2767 139.3923,68.6457 139.6923,67.6677 L140.7953,67.6677 C140.4333,69.2297 139.0763,70.2537 137.3413,70.2537 C135.1813,70.2537 133.7143,68.6607 133.7143,66.2637 C133.7143,63.8667 135.1813,62.2267 137.4053,62.2267" id="Fill-21" fill="#000000" mask="url(#mask-2)"></path>
                <path d="M142.452,70.0649 L143.54,70.0649 L143.54,62.4319 L142.452,62.4319 L142.452,70.0649 Z M142.184,59.5299 C142.184,59.0879 142.547,58.7099 142.989,58.7099 C143.43,58.7099 143.808,59.0879 143.808,59.5299 C143.808,59.9709 143.43,60.3339 142.989,60.3339 C142.547,60.3339 142.184,59.9709 142.184,59.5299 L142.184,59.5299 Z" id="Fill-22" fill="#000000" mask="url(#mask-2)"></path>
                <path d="M150.7951,66.5951 L150.7951,66.1851 L148.5401,66.3581 C147.1041,66.4851 146.5211,67.1161 146.5211,67.9671 C146.5211,68.8981 147.2151,69.3711 148.2561,69.3711 C149.8651,69.3711 150.7951,68.2511 150.7951,66.5951 M145.4171,67.9991 C145.4171,66.5951 146.4901,65.7121 148.2721,65.5701 L150.7951,65.3651 L150.7951,65.1131 C150.7951,63.6141 149.8961,63.1411 148.7761,63.1411 C147.4511,63.1411 146.6631,63.7411 146.6631,64.7661 L145.6691,64.7661 C145.6691,63.2201 146.9311,62.2271 148.8081,62.2271 C150.5741,62.2271 151.8671,63.1091 151.8671,65.1281 L151.8671,70.0651 L150.9531,70.0651 L150.8111,68.7241 C150.3371,69.6861 149.2971,70.2541 148.0041,70.2541 C146.3791,70.2541 145.4171,69.3391 145.4171,67.9991" id="Fill-23" fill="#000000" mask="url(#mask-2)"></path>
                <polygon id="Fill-24" fill="#000000" mask="url(#mask-2)" points="154.092 70.0649 155.18 70.0649 155.18 58.5669 154.092 58.5669"></polygon>
                <polygon id="Fill-25" fill="#000000" mask="url(#mask-2)" points="159.1857 65.097 159.1857 70.065 158.0507 70.065 158.0507 58.773 164.7057 58.773 164.7057 59.813 159.1857 59.813 159.1857 64.072 163.8067 64.072 163.8067 65.097"></polygon>
                <path d="M169.1221,69.2764 C170.7461,69.2764 171.8981,68.0304 171.8981,66.2324 C171.8981,64.4664 170.7461,63.2044 169.1221,63.2044 C167.4821,63.2044 166.3461,64.4664 166.3461,66.2324 C166.3461,68.0304 167.4821,69.2764 169.1221,69.2764 M169.1221,62.2264 C171.3621,62.2264 173.0021,63.9144 173.0021,66.2484 C173.0021,68.5664 171.3621,70.2544 169.1221,70.2544 C166.8821,70.2544 165.2421,68.5664 165.2421,66.2484 C165.2421,63.9144 166.8821,62.2264 169.1221,62.2264" id="Fill-26" fill="#000000" mask="url(#mask-2)"></path>
                <path d="M178.7276,63.3149 L178.1286,63.3149 C176.7246,63.3149 175.8256,64.2609 175.8256,65.7119 L175.8256,70.0649 L174.7376,70.0649 L174.7376,62.4319 L175.7626,62.4319 L175.8416,63.6139 C176.1416,62.7939 176.9456,62.2579 178.0176,62.2579 C178.2546,62.2579 178.4596,62.2739 178.7276,62.3369 L178.7276,63.3149 Z" id="Fill-27" fill="#000000" mask="url(#mask-2)"></path>
                <path d="M183.0325,62.2267 C184.7995,62.2267 186.0925,63.2517 186.3925,64.8287 L185.3035,64.8287 C185.0195,63.7717 184.1055,63.1887 183.0485,63.1887 C181.5035,63.1887 180.4145,64.3717 180.4145,66.2487 C180.4145,68.0617 181.4245,69.2767 182.9695,69.2767 C184.1055,69.2767 185.0195,68.6457 185.3195,67.6677 L186.4235,67.6677 C186.0605,69.2297 184.7045,70.2537 182.9695,70.2537 C180.8085,70.2537 179.3425,68.6607 179.3425,66.2637 C179.3425,63.8667 180.8085,62.2267 183.0325,62.2267" id="Fill-28" fill="#000000" mask="url(#mask-2)"></path>
                <path d="M188.6322,65.6016 L193.5842,65.6016 C193.5842,64.1346 192.6382,63.1566 191.2032,63.1566 C189.7672,63.1566 188.8212,64.1036 188.6322,65.6016 M187.5442,66.2486 C187.5442,63.8666 189.0262,62.2266 191.2032,62.2266 C193.2682,62.2266 194.6722,63.6926 194.6722,65.8536 L194.6722,66.3906 L188.6002,66.3906 C188.6792,68.2506 189.6572,69.3236 191.2972,69.3236 C192.5432,69.3236 193.3472,68.7876 193.6312,67.7786 L194.6722,67.7786 C194.2622,69.3866 193.0792,70.2536 191.2812,70.2536 C189.0422,70.2536 187.5442,68.6456 187.5442,66.2486" id="Fill-29" fill="#000000" mask="url(#mask-2)"></path>
                <path d="M15.9446,41.5044 C10.3456,41.5044 6.8166,36.3314 6.8166,27.9944 C6.8166,19.7784 10.2236,14.6664 15.7006,14.6664 C19.1096,14.6664 22.2126,16.6744 23.2476,19.1704 C22.6386,18.5614 21.7866,18.1964 20.8136,18.1964 C18.7436,18.1964 17.2836,19.7174 17.2836,21.6654 C17.2836,23.6124 18.8046,25.1944 20.8136,25.1944 C23.0046,25.1944 24.5866,23.3694 24.5866,20.9344 C24.5866,16.7354 20.0216,13.3884 13.9966,13.3884 C5.7816,13.3884 -0.0004,19.5964 -0.0004,28.3594 C-0.0004,37.0614 5.6596,43.0864 13.9366,43.0864 C18.9266,43.0864 22.8216,40.8954 25.3166,36.6964 L24.5256,36.1494 C22.4566,39.5574 19.2916,41.5044 15.9446,41.5044" id="Fill-30" fill="#000000" mask="url(#mask-2)"></path>
                <path d="M33.8355,26.1076 C34.0785,19.1086 36.8785,14.4236 40.5295,14.4236 C44.1805,14.4236 46.1285,19.1706 45.9465,26.1076 L33.8355,26.1076 Z M40.7125,13.3886 C32.6185,13.3886 27.1415,19.4136 27.1415,28.1766 C27.1415,37.1836 32.9225,43.0866 41.1385,43.0866 C46.0675,43.0866 49.9625,40.8956 52.4575,36.6966 L51.6665,36.1486 C49.5975,39.5566 46.4325,41.5046 42.9635,41.5046 C37.3655,41.5046 33.8355,36.5146 33.8355,27.1426 L52.5185,27.1426 C52.5325,27.1286 52.5415,27.1196 52.5545,27.1066 C52.9615,18.6726 48.2565,13.3886 40.7125,13.3886 L40.7125,13.3886 Z" id="Fill-31" fill="#000000" mask="url(#mask-2)"></path>
                <path d="M73.5131,13.3886 C69.6791,13.3886 66.6971,16.9186 65.2361,23.0036 L65.2361,14.1186 L54.2211,14.1186 L54.2211,15.1536 L59.0291,15.1536 L59.0291,41.3216 L54.2211,41.3216 L54.2211,42.3566 L71.6261,42.3566 L71.6261,41.3216 L65.2361,41.3216 L65.2361,30.4896 C65.2361,21.2386 68.8881,14.3016 73.6951,14.3016 C75.2771,14.3016 76.4341,15.0316 76.9811,16.1876 C76.3121,15.6406 75.5211,15.2756 74.6081,15.2756 C72.5391,15.2756 71.0781,16.7966 71.0781,18.7436 C71.0781,20.6916 72.6001,22.2736 74.6081,22.2736 C76.7991,22.2736 78.3821,20.4486 78.3821,18.0136 C78.3821,15.3356 76.3731,13.3886 73.5131,13.3886" id="Fill-32" fill="#000000" mask="url(#mask-2)"></path>
                <path d="M93.5945,41.4436 C91.5865,41.4436 90.5515,39.8616 90.5515,36.8796 L90.5515,15.1536 L97.2465,15.1536 L97.2465,14.1186 L90.5515,14.1186 L90.5515,3.7126 C88.7865,4.5036 86.0485,5.4166 84.3445,5.8426 L84.3445,14.1186 L79.8405,14.1186 L79.8405,15.1536 L84.3445,15.1536 L84.3445,34.3836 C84.3445,40.2266 86.6565,43.0866 91.5255,43.0866 C94.6895,43.0866 96.8195,41.8696 98.5235,39.0706 L97.7325,38.5226 C96.6985,40.3486 95.1765,41.4436 93.5945,41.4436" id="Fill-33" fill="#000000" mask="url(#mask-2)"></path>
                <path d="M107.652,7.9115 C109.843,7.9115 111.607,6.1465 111.607,3.9555 C111.607,1.7645 109.843,0.0005 107.652,0.0005 C105.461,0.0005 103.696,1.7645 103.696,3.9555 C103.696,6.1465 105.461,7.9115 107.652,7.9115" id="Fill-34" fill="#000000" mask="url(#mask-2)"></path>
                <polygon id="Fill-35" fill="#000000" mask="url(#mask-2)" points="115.805 4.5639 148.729 4.5639 148.729 3.3469 115.805 3.3469"></polygon>
                <path d="M159.9855,14.1189 L148.9705,14.1189 L148.9705,15.1529 L153.7775,15.1529 L153.7775,41.3219 L144.4685,41.3219 L144.4685,24.0389 C144.4685,16.9789 141.6085,13.3889 136.1925,13.3889 C131.6885,13.3889 128.2805,16.0659 126.6385,20.9349 L126.6385,14.1189 L115.8055,14.1189 L115.8055,15.1529 L120.4915,15.1529 L120.4915,41.3219 L110.7555,41.3219 L110.7555,14.1189 L99.7405,14.1189 L99.7405,15.1529 L104.5475,15.1529 L104.5475,41.3219 L99.7405,41.3219 L99.7405,42.3569 L131.0805,42.3569 L131.0805,41.3219 L126.6985,41.3219 L126.6985,24.9509 C126.6985,20.3259 130.2895,15.2749 134.0015,15.2749 C136.5575,15.2749 138.2615,16.9789 138.2615,21.4829 L138.2615,41.3219 L133.9405,41.3219 L133.9405,42.3569 L164.7325,42.3569 L164.7325,41.3219 L159.9855,41.3219 L159.9855,14.1189 Z" id="Fill-36" fill="#000000" mask="url(#mask-2)"></path>
                <path d="M156.8817,7.9115 C159.0727,7.9115 160.8377,6.1465 160.8377,3.9555 C160.8377,1.7645 159.0727,0.0005 156.8817,0.0005 C154.6907,0.0005 152.9257,1.7645 152.9257,3.9555 C152.9257,6.1465 154.6907,7.9115 156.8817,7.9115" id="Fill-37" fill="#000000" mask="url(#mask-2)"></path>
                <path d="M183.536,35.4795 C183.536,38.5225 180.371,41.4435 177.024,41.4435 C174.347,41.4435 172.886,39.5565 172.886,36.0275 C172.886,31.1585 175.686,28.6635 183.536,26.4725 L183.536,35.4795 Z M193.882,39.0095 C193.212,40.4695 192.299,41.2615 191.265,41.2615 C190.23,41.2615 189.622,40.4695 189.622,39.0705 L189.622,24.7075 C189.622,17.5265 185.423,13.3885 178.12,13.3885 C172.338,13.3885 168.443,16.0665 168.443,20.2045 C168.443,22.5775 170.026,24.4035 172.217,24.4035 C174.225,24.4035 175.746,22.8215 175.746,20.8745 C175.746,18.9265 174.286,17.4055 172.217,17.4055 C171.182,17.4055 170.269,17.8315 169.6,18.5615 C170.452,16.1875 173.251,14.6055 176.963,14.6055 C181.284,14.6055 183.536,16.7355 183.536,20.8135 L183.536,25.4995 C171.304,28.0555 166.618,31.0975 166.618,36.3925 C166.618,40.6525 169.661,43.1475 174.712,43.1475 C178.911,43.1475 182.197,41.3825 183.475,38.4615 C183.779,41.3215 185.97,43.1475 189.135,43.1475 C191.63,43.1475 193.395,41.9915 194.673,39.4355 L193.882,39.0095 Z" id="Fill-38" fill="#000000" mask="url(#mask-2)"></path>
            </g>
        </g>
    </g>
</svg>