<?xml version="1.0" encoding="UTF-8"?><svg id="Layer_2" xmlns="http://www.w3.org/2000/svg" xmlns:xlink="http://www.w3.org/1999/xlink" viewBox="0 0 80 100"><defs><style>.cls-1{fill:url(#linear-gradient);}.cls-1,.cls-2,.cls-3,.cls-4{stroke-width:0px;}.cls-3{fill:#3927ff;}.cls-4{fill:#fff;}</style><linearGradient id="linear-gradient" x1="0" y1="60" x2="80" y2="60" gradientTransform="translate(0 110) scale(1 -1)" gradientUnits="userSpaceOnUse"><stop offset="0" stop-color="#c3a2cd"/><stop offset=".11" stop-color="#b9a0cd"/><stop offset=".28" stop-color="#a09dcd"/><stop offset=".43" stop-color="#879ace"/><stop offset=".99" stop-color="#84d3e8"/></linearGradient></defs><g id="Layer_2-2"><g id="Layer_1-2"><g id="Certinia_POTY.2023"><polygon class="cls-4" points="0 0 0 100 40.12 84.62 80 100 80 0 0 0"/><path class="cls-2" d="M12.48,27.13v-.32c.72,0,1.07-.26,1.07-.78v-5.08c0-.43-.37-.65-1.12-.65v-.34h2.57c.15,0,.27,0,.39,0,.12,0,.23,0,.35,0h.46c1.75,0,2.64.7,2.64,2.1,0,.28-.05.53-.16.77s-.27.45-.49.62c-.22.18-.5.32-.84.42-.34.1-.74.15-1.2.15-.25,0-.5,0-.74-.03-.24-.02-.47-.05-.7-.09v2.11c0,.55.39.83,1.16.83v.32h-3.4,0ZM15.21,20.29c-.33,0-.49.19-.49.57v2.61c.2.04.41.06.65.08s.5.04.79.04c.26,0,.48-.05.66-.14.18-.09.34-.21.46-.36.12-.15.21-.32.26-.51.05-.19.08-.39.08-.61,0-1.12-.7-1.69-2.11-1.69h-.31Z"/><path class="cls-2" d="M23.5,27.13v-.32c.11-.02.23-.03.35-.05.12-.02.23-.04.33-.06.1-.02.18-.05.25-.08s.1-.07.1-.11c0-.03-.02-.07-.02-.13s-.03-.12-.06-.2l-.53-1.33c-.09-.18-.33-.28-.72-.28h-1.75c-.3,0-.48.09-.55.28l-.4,1.12c-.03.06-.05.16-.05.28,0,.33.35.5,1.04.5v.38h-2.66v-.38c.23-.02.42-.08.58-.22.16-.13.3-.31.41-.56l2.83-6.17.35.13,2.79,6.42c.11.15.2.25.26.28.02.02.08.04.19.06.12.03.27.06.47.11v.32h-3.23v.03ZM22.47,21.32l-1.04,2.27c-.09.17-.13.29-.13.37,0,.11.15.17.44.17h1.48c.24,0,.35-.05.35-.13,0-.04-.05-.16-.13-.36l-.98-2.31Z"/><path class="cls-2" d="M35.09,26.18c0,.08-.02.19-.06.31-.05.12-.11.24-.2.35-.09.11-.2.2-.33.28s-.27.12-.45.12c-.48,0-.84-.07-1.06-.22s-.4-.39-.51-.72c-.09-.28-.19-.57-.28-.88-.09-.31-.21-.61-.34-.86-.13-.27-.29-.49-.47-.66-.19-.17-.43-.27-.71-.27h-.35c-.21,0-.34.04-.36.12v2.35c0,.47.36.71,1.08.71v.32h-3.32v-.32c.69,0,1.04-.24,1.04-.71v-5.11c0-.46-.37-.69-1.12-.69v-.34h2.14c.18,0,.35,0,.53-.02.17,0,.35,0,.55-.02h.7c.34,0,.65.05.95.14.3.09.55.21.77.38.22.16.39.35.51.56.13.22.19.45.19.71s-.05.48-.15.67c-.1.19-.25.37-.43.5-.18.15-.4.27-.65.37-.25.1-.53.18-.84.24v.04c.37.17.69.38.94.62s.42.49.5.72c.05.15.1.32.16.52s.14.39.22.57c.08.18.18.33.29.46s.25.19.4.19c.19,0,.33-.17.41-.49l.27.08v-.03ZM30.86,23.21c.24,0,.46-.02.68-.05.22-.03.42-.09.59-.19.17-.1.31-.25.42-.43.11-.18.16-.44.16-.77,0-.28-.05-.5-.16-.68-.11-.18-.25-.32-.41-.43-.17-.1-.35-.17-.56-.22-.2-.05-.41-.06-.6-.06h-.56c-.3,0-.45.2-.45.61v2.06c.03.11.13.17.28.17,0,0,.61,0,.61,0Z"/><path class="cls-2" d="M36.96,27.13v-.32c.84,0,1.26-.33,1.26-.99v-4.98c0-.27-.19-.4-.57-.4-.52,0-.94.16-1.26.46-.32.3-.56.77-.72,1.39l-.36-.08.32-2.3c.18.02.35.04.51.06.16.02.32.02.46.02h4.54c.16,0,.34,0,.51-.02.17-.02.35-.04.53-.06v2.26l-.32.05c-.09-1.16-.72-1.72-1.87-1.72-.39,0-.58.12-.58.37v4.98c0,.66.43.99,1.27.99v.32h-3.71Z"/><path class="cls-2" d="M50.45,27.25l-5.21-6.08v4.36c0,.85.4,1.28,1.21,1.28v.32h-2.83v-.32c.66,0,.99-.43.99-1.28v-4.77c0-.3-.39-.46-1.16-.46v-.32h2.16l4.61,5.39v-3.88c0-.8-.4-1.19-1.2-1.19v-.32h2.83v.32c-.72,0-1.08.39-1.08,1.19v5.7l-.31.07h0Z"/><path class="cls-2" d="M52.62,27.13v-.32c.72,0,1.08-.24,1.08-.71v-4.9c0-.61-.39-.91-1.16-.91v-.32h6.2l.09,2.02-.36.05c-.07-.39-.17-.69-.32-.91-.15-.22-.31-.38-.51-.48s-.43-.17-.69-.18c-.25-.02-.55-.03-.85-.03h-.33c-.6,0-.89.17-.89.49v1.94c0,.22.09.32.28.32h.4c.2,0,.38,0,.55-.03.17-.02.32-.06.45-.14s.24-.19.32-.35.14-.37.17-.63h.44v2.8h-.44c-.03-.27-.08-.48-.15-.63s-.15-.28-.27-.36-.26-.14-.44-.17-.38-.04-.64-.04h-.15c-.36,0-.55.12-.55.36v2.06c0,.41.32.61.95.61h.36c.49,0,.89-.04,1.2-.1.3-.06.55-.17.74-.32s.34-.33.45-.56c.11-.22.23-.49.35-.79l.32.08-.32,2.14s-6.29,0-6.29,0Z"/><path class="cls-2" d="M68.29,26.18c0,.08-.02.19-.06.31-.05.12-.11.24-.2.35-.09.11-.2.2-.33.28s-.27.12-.45.12c-.48,0-.84-.07-1.06-.22s-.4-.39-.51-.72c-.09-.28-.19-.57-.28-.88-.09-.31-.21-.61-.34-.86-.13-.27-.29-.49-.47-.66-.19-.17-.43-.27-.71-.27h-.35c-.21,0-.34.04-.36.12v2.35c0,.47.36.71,1.08.71v.32h-3.32v-.32c.69,0,1.04-.24,1.04-.71v-5.11c0-.46-.37-.69-1.12-.69v-.34h2.14c.18,0,.35,0,.53-.02.17,0,.35,0,.55-.02h.7c.34,0,.65.05.95.14s.55.21.77.38c.22.16.39.35.51.56.13.22.19.45.19.71s-.05.48-.15.67-.25.37-.43.5c-.18.15-.4.27-.65.37-.25.1-.53.18-.84.24v.04c.37.17.69.38.94.62s.42.49.5.72c.05.15.1.32.16.52s.14.39.22.57c.08.18.18.33.29.46s.25.19.4.19c.19,0,.33-.17.41-.49l.27.08v-.03ZM64.06,23.21c.24,0,.46-.02.68-.05.22-.03.42-.09.59-.19.17-.1.31-.25.42-.43.11-.18.16-.44.16-.77,0-.28-.05-.5-.16-.68-.11-.18-.25-.32-.41-.43-.17-.1-.35-.17-.56-.22-.2-.05-.41-.06-.6-.06h-.56c-.3,0-.45.2-.45.61v2.06c.03.11.13.17.28.17,0,0,.61,0,.61,0Z"/><path class="cls-2" d="M22.94,32.98c-.25,0-.48-.05-.69-.13s-.39-.2-.55-.35-.27-.32-.35-.52-.13-.41-.13-.64c0-.21.04-.42.12-.61.08-.2.2-.38.35-.53.15-.16.33-.28.55-.38.21-.09.45-.14.71-.14s.49.04.71.12.4.19.55.34.28.32.36.51c.09.2.13.41.13.65,0,.2-.05.41-.13.61-.08.2-.2.39-.35.54-.15.16-.34.28-.55.39-.22.1-.45.15-.73.15h0ZM22.99,32.79c.2,0,.36-.04.5-.11.14-.07.25-.17.35-.31.09-.13.15-.28.2-.47.05-.17.06-.37.06-.58,0-.19-.02-.38-.06-.56s-.11-.34-.21-.48-.22-.25-.37-.34-.34-.13-.55-.13c-.2,0-.37.04-.51.12s-.25.18-.34.32c-.08.14-.15.29-.18.47s-.05.36-.05.55c0,.21.03.41.07.6s.12.34.21.48.22.24.36.32.32.12.52.12h0Z"/><path class="cls-2" d="M25.64,32.91v-.15c.31,0,.46-.13.46-.39v-2.09c0-.28-.16-.42-.5-.42v-.15h2.69l.08.89-.18.02c-.03-.17-.08-.28-.14-.38-.06-.09-.14-.17-.23-.21s-.2-.07-.32-.09c-.12,0-.25-.02-.41-.02h-.15c-.22,0-.32.06-.32.2v.84c0,.12.1.17.3.17h.08c.12,0,.21,0,.27-.02s.12-.04.15-.07.07-.08.09-.15.05-.15.06-.25h.18v1.23h-.18v-.1s0-.09-.02-.14c0-.05-.04-.09-.08-.14-.05-.05-.1-.08-.19-.11-.08-.03-.19-.05-.34-.05h-.25c-.06,0-.09.05-.09.15v.88c0,.26.18.39.55.39v.15h-1.54Z"/><path class="cls-2" d="M31.33,32.91v-.15c.37,0,.56-.15.56-.44v-2.22c0-.12-.08-.17-.25-.17-.23,0-.42.06-.56.2s-.25.34-.32.61l-.16-.04.15-1.03c.08,0,.15.02.23.03s.15,0,.21,0h2.02c.07,0,.15,0,.23,0s.15-.02.24-.03v1.01l-.15.02c-.05-.51-.32-.77-.84-.77-.17,0-.26.06-.26.17v2.22c0,.29.19.44.56.44v.15s-1.65,0-1.65,0Z"/><path class="cls-2" d="M36.52,32.91v-.15c.35,0,.52-.11.52-.33v-1.01c-.06-.05-.2-.07-.4-.07h-.95c-.07,0-.14,0-.2.02-.06,0-.12.03-.18.06v1.01c0,.22.16.33.48.33v.15h-1.54v-.15c.35,0,.54-.11.54-.33v-2.15c0-.28-.18-.42-.54-.42v-.15h1.54v.15c-.32,0-.48.14-.48.42v.83c.12.04.25.06.38.06h.95c.2,0,.33-.02.4-.06v-.83c0-.28-.17-.42-.52-.42v-.15h1.52v.15c-.32,0-.48.14-.48.42v2.15c0,.22.16.33.48.33v.15s-1.52,0-1.52,0Z"/><path class="cls-2" d="M38.89,32.91v-.15c.32,0,.48-.1.48-.31v-2.18c0-.27-.17-.4-.52-.4v-.15h2.76l.05.9-.16.02c-.03-.17-.08-.31-.15-.4s-.14-.17-.23-.21-.19-.07-.31-.08c-.12,0-.25,0-.38,0h-.15c-.26,0-.4.07-.4.22v.86c0,.09.05.15.13.15h.18c.09,0,.17,0,.25,0,.07,0,.15-.03.2-.06s.11-.08.15-.16c.04-.07.06-.17.07-.28h.19v1.25h-.19c-.02-.12-.04-.21-.06-.28s-.07-.12-.12-.16c-.05-.04-.12-.06-.19-.07-.07,0-.17-.02-.28-.02h-.06c-.16,0-.25.06-.25.16v.92c0,.18.14.28.42.28h.16c.22,0,.4-.02.54-.05s.25-.08.33-.15.15-.15.2-.25c.05-.1.1-.22.15-.35l.15.04-.15.95s-2.81,0-2.81,0Z"/><path class="cls-2" d="M45.27,32.91v-.15c.35,0,.54-.07.54-.22v-.94l-.87-1.34c-.18-.27-.37-.4-.58-.4v-.15h1.44v.15c-.25,0-.38.06-.38.17,0,.03,0,.05.02.07.02.02.04.06.06.1l.74,1.14.68-1.12s.02-.06.03-.1c0-.04,0-.07,0-.11,0-.1-.14-.15-.42-.15v-.15h1.22v.15c-.18,0-.32.06-.42.18l-.98,1.54v.97c0,.14.17.2.52.2v.15h-1.6,0Z"/><path class="cls-2" d="M48.3,32.91v-.15c.32,0,.48-.1.48-.31v-2.18c0-.27-.17-.4-.52-.4v-.15h2.76l.05.9-.16.02c-.03-.17-.08-.31-.15-.4s-.14-.17-.23-.21-.19-.07-.31-.08c-.12,0-.25,0-.38,0h-.15c-.26,0-.4.07-.4.22v.86c0,.09.05.15.13.15h.18c.09,0,.17,0,.25,0,.07,0,.15-.03.2-.06s.11-.08.15-.16c.04-.07.06-.17.07-.28h.19v1.25h-.19c-.02-.12-.04-.21-.06-.28s-.07-.12-.12-.16-.12-.06-.19-.07c-.07,0-.17-.02-.28-.02h-.06c-.16,0-.25.06-.25.16v.92c0,.18.14.28.42.28h.16c.22,0,.4-.02.54-.05s.25-.08.33-.15.15-.15.2-.25c.05-.1.1-.22.15-.35l.15.04-.15.95s-2.81,0-2.81,0Z"/><path class="cls-2" d="M53.78,32.91v-.15s.1,0,.15-.02c.05,0,.1-.02.15-.03s.08-.02.11-.04.05-.03.05-.06v-.06s0-.06-.03-.09l-.24-.6c-.04-.08-.15-.13-.32-.13h-.78c-.14,0-.21.05-.25.13l-.18.5s-.02.07-.02.13c0,.15.15.22.46.22v.17h-1.18v-.17c.1,0,.19-.04.26-.09.07-.06.14-.14.18-.25l1.26-2.75.15.06,1.25,2.86c.05.06.09.11.12.13,0,0,.04.02.09.03.05,0,.12.03.21.06v.15h-1.45ZM53.32,30.32l-.46,1.01c-.04.07-.05.13-.05.17,0,.05.06.07.19.07h.66c.11,0,.15-.02.15-.06,0-.02-.02-.07-.05-.16l-.44-1.03h0Z"/><path class="cls-2" d="M59.05,32.49s0,.08-.03.14-.05.11-.09.16c-.04.05-.09.09-.15.13s-.13.06-.2.06c-.22,0-.37-.04-.47-.1-.1-.06-.17-.17-.23-.32-.05-.12-.08-.26-.13-.39s-.09-.27-.15-.39c-.05-.12-.13-.21-.21-.29s-.19-.12-.32-.12h-.15c-.09,0-.15.02-.16.06v1.05c0,.21.16.31.48.31v.15h-1.48v-.15c.31,0,.46-.1.46-.31v-2.28c0-.2-.16-.31-.5-.31v-.15h1.74c.15,0,.29.02.43.06.14.04.25.09.35.17s.17.16.23.25c.05.1.08.2.08.31s-.03.21-.07.3c-.05.08-.11.17-.19.23s-.18.12-.29.17-.24.08-.37.11v.02c.16.07.31.17.42.28s.18.22.23.32c.02.06.05.14.07.23s.06.17.1.26.08.15.13.2.11.08.18.08c.08,0,.15-.07.18-.22l.12.04v-.03ZM57.17,31.17c.11,0,.21,0,.31-.02.1,0,.18-.05.26-.08s.14-.11.19-.19c.05-.08.07-.2.07-.34,0-.12-.03-.22-.07-.3-.05-.08-.11-.15-.18-.19s-.15-.08-.25-.1c-.09-.02-.18-.03-.26-.03h-.25c-.14,0-.2.09-.2.27v.92s.05.07.13.07h.27-.02Z"/><path class="cls-2" d="M22.91,59.63v-7.07h2.28c2.09,0,3.51,1.43,3.51,3.54s-1.4,3.53-3.47,3.53h-2.32ZM23.86,53.44v5.3h1.3c1.56,0,2.55-1.02,2.55-2.64s-.99-2.66-2.59-2.66h-1.26,0Z"/><path class="cls-2" d="M29.54,57.25c0-1.5.94-2.53,2.32-2.53s2.23.94,2.23,2.36v.34h-3.66c.06,1.02.59,1.58,1.49,1.58.71,0,1.17-.29,1.33-.84h.85c-.24,1.03-1.03,1.61-2.2,1.61-1.4,0-2.36-1.02-2.36-2.5ZM30.44,56.81h2.74c0-.79-.52-1.32-1.32-1.32s-1.3.48-1.42,1.32Z"/><path class="cls-2" d="M35.23,59.63v-7.2h.91v7.2h-.91Z"/><path class="cls-2" d="M37.42,53.1c0-.34.27-.61.6-.61s.6.27.6.61-.27.61-.6.61-.6-.28-.6-.61ZM37.57,54.84h.91v4.78h-.91v-4.78Z"/><path class="cls-2" d="M39.32,54.84h.97l1.04,2.67c.16.45.3.85.38,1.15.08-.31.24-.72.4-1.15l1.05-2.67h.95l-1.98,4.78h-.9l-1.91-4.78h0Z"/><path class="cls-2" d="M44.6,57.25c0-1.5.94-2.53,2.32-2.53s2.23.94,2.23,2.36v.34h-3.66c.06,1.02.59,1.58,1.49,1.58.71,0,1.17-.29,1.33-.84h.85c-.24,1.03-1.03,1.61-2.2,1.61-1.4,0-2.36-1.02-2.36-2.5ZM45.51,56.81h2.74c0-.79-.52-1.32-1.32-1.32s-1.3.48-1.42,1.32Z"/><path class="cls-2" d="M52.98,55.65h-.41c-.86,0-1.4.53-1.4,1.45v2.53h-.91v-4.77h.85l.05.72c.19-.5.67-.83,1.32-.83.16,0,.3.02.48.06v.84h0Z"/><path class="cls-2" d="M53.43,61.02h.61c.44,0,.78-.06,1.01-.68l.16-.46-1.91-5.04h.96l1.37,3.85,1.41-3.85h.94l-2.24,5.86c-.32.83-.79,1.17-1.52,1.17-.3,0-.55-.04-.79-.1v-.75h0Z"/><path class="cls-2" d="M17.17,70v-7.07h4.27v.88h-3.33v2.21h3v.85h-3v2.24h3.33v.89s-4.27,0-4.27,0Z"/><path class="cls-2" d="M22.2,70l1.65-2.37-1.65-2.41h1.05l1.2,1.78,1.17-1.78h1.04l-1.65,2.41,1.62,2.37h-1.05l-1.18-1.75-1.16,1.75h-1.05Z"/><path class="cls-2" d="M29.56,65.07c1.19,0,2.03.69,2.19,1.75h-.91c-.15-.61-.64-.93-1.25-.93-.86,0-1.45.67-1.45,1.71s.55,1.69,1.42,1.69c.65,0,1.14-.34,1.3-.91h.91c-.18,1.04-1.06,1.73-2.21,1.73-1.4,0-2.32-1-2.32-2.5s.94-2.53,2.33-2.53h0Z"/><path class="cls-2" d="M32.51,67.61c0-1.5.94-2.53,2.32-2.53s2.23.94,2.23,2.36v.34h-3.66c.06,1.02.59,1.58,1.49,1.58.71,0,1.17-.29,1.33-.84h.85c-.24,1.03-1.03,1.61-2.2,1.61-1.4,0-2.36-1.02-2.36-2.5ZM33.41,67.17h2.74c0-.79-.52-1.32-1.32-1.32s-1.3.48-1.42,1.32Z"/><path class="cls-2" d="M38.19,70v-7.2h.91v7.2h-.91Z"/><path class="cls-2" d="M40.55,70v-7.2h.91v7.2h-.91Z"/><path class="cls-2" d="M42.59,67.61c0-1.5.94-2.53,2.32-2.53s2.23.94,2.23,2.36v.34h-3.66c.06,1.02.59,1.58,1.49,1.58.71,0,1.17-.29,1.33-.84h.85c-.24,1.03-1.03,1.61-2.2,1.61-1.4,0-2.36-1.02-2.36-2.5ZM43.49,67.17h2.74c0-.79-.52-1.32-1.32-1.32s-1.3.48-1.42,1.32Z"/><path class="cls-2" d="M48.26,70v-4.78h.83l.1.73c.3-.55.9-.87,1.57-.87,1.25,0,1.83.77,1.83,2v2.93h-.91v-2.72c0-.97-.45-1.36-1.15-1.36-.85,0-1.35.61-1.35,1.54v2.53h-.93Z"/><path class="cls-2" d="M55.95,65.07c1.19,0,2.03.69,2.19,1.75h-.91c-.15-.61-.64-.93-1.25-.93-.86,0-1.45.67-1.45,1.71s.55,1.69,1.42,1.69c.65,0,1.14-.34,1.3-.91h.91c-.18,1.04-1.06,1.73-2.21,1.73-1.4,0-2.32-1-2.32-2.5s.94-2.53,2.33-2.53h0Z"/><path class="cls-2" d="M58.9,67.61c0-1.5.94-2.53,2.32-2.53s2.23.94,2.23,2.36v.34h-3.66c.06,1.02.59,1.58,1.49,1.58.71,0,1.17-.29,1.33-.84h.85c-.24,1.03-1.03,1.61-2.2,1.61-1.4,0-2.36-1.02-2.36-2.5ZM59.8,67.17h2.74c0-.79-.52-1.32-1.32-1.32s-1.3.48-1.42,1.32Z"/><path class="cls-2" d="M31.82,78.54v-.37l.99-.77c.41-.32.55-.5.55-.77,0-.31-.18-.5-.51-.5s-.54.21-.55.57h-.53c0-.61.43-1,1.06-1s1.05.34,1.05.9c0,.39-.23.68-.69,1.04l-.55.43h1.25v.45h-2.1l.02.02Z"/><path class="cls-2" d="M37.71,75.71c.77,0,1.28.59,1.28,1.45s-.48,1.43-1.28,1.43-1.28-.57-1.28-1.43.51-1.45,1.28-1.45ZM37.71,78.16c.48,0,.76-.36.76-1s-.28-1.02-.76-1.02-.75.36-.75,1.02.28,1,.75,1Z"/><path class="cls-2" d="M41.72,78.54v-.37l.99-.77c.41-.32.55-.5.55-.77,0-.31-.18-.5-.51-.5s-.54.21-.55.57h-.53c0-.61.43-1,1.06-1s1.05.34,1.05.9c0,.39-.23.68-.69,1.04l-.55.43h1.25v.45h-2.1l.02.02Z"/><path class="cls-2" d="M47.05,77.17v-.31l.78-.66h-1.25v-.43h1.92v.39l-.74.62c.46.08.83.39.83.88,0,.57-.48.93-1.1.93s-1.05-.33-1.05-.94h.52c0,.32.22.5.54.5s.55-.2.55-.5c0-.28-.2-.49-.62-.49h-.37Z"/><path class="cls-1" d="M0,0v100l40.12-15.38,39.88,15.38V0H0ZM40.12,82.28L2.17,96.83v-52.48h28.32v-2.19H2.17V2.19h75.65v39.96h-28.37v2.19h28.37v52.48s-37.71-14.54-37.71-14.54Z"/><ellipse class="cls-3" cx="40.07" cy="43.35" rx="4.62" ry="4.66"/><path class="cls-2" d="M30.42,15.17c-.66,0-1.08-.62-1.08-1.61s.4-1.6,1.05-1.6c.4,0,.77.24.89.54-.07-.07-.17-.12-.29-.12-.25,0-.42.18-.42.41s.18.42.42.42c.26,0,.45-.22.45-.51,0-.5-.55-.9-1.25-.9-.97,0-1.66.74-1.66,1.79s.67,1.76,1.65,1.76c.59,0,1.05-.27,1.35-.76l-.09-.06c-.25.4-.62.64-1.02.64Z"/><path class="cls-2" d="M33.35,11.81c-.96,0-1.61.72-1.61,1.77s.68,1.79,1.66,1.79c.58,0,1.05-.27,1.35-.76l-.09-.06c-.25.4-.62.64-1.04.64-.66,0-1.08-.6-1.08-1.72h2.22c.05-1.01-.51-1.64-1.41-1.64v-.02ZM32.54,13.33c.03-.83.36-1.39.79-1.39s.66.57.65,1.39c0,0-1.44,0-1.44,0Z"/><path class="cls-2" d="M37.24,11.81c-.45,0-.81.42-.98,1.15v-1.06h-1.31v.13h.57v3.14h-.57v.13h2.06v-.13h-.75v-1.29c0-1.11.44-1.94,1-1.94.19,0,.33.09.39.23-.08-.06-.17-.11-.28-.11-.25,0-.42.18-.42.41s.18.42.42.42c.26,0,.45-.22.45-.51,0-.32-.24-.55-.58-.55h0Z"/><path class="cls-2" d="M39.64,15.17c-.24,0-.36-.19-.36-.55v-2.61h.79v-.13h-.79v-1.25c-.21.09-.54.2-.74.26v.99h-.54v.13h.54v2.3c0,.7.27,1.05.85,1.05.37,0,.63-.15.83-.48l-.09-.06c-.13.22-.3.35-.49.35Z"/><path class="cls-2" d="M41.3,11.15c.26,0,.47-.21.47-.48s-.21-.48-.47-.48-.47.21-.47.48.21.48.47.48Z"/><rect class="cls-2" x="42.26" y="10.61" width="3.91" height=".15"/><path class="cls-2" d="M47.51,11.89h-1.31v.13h.57v3.14h-1.1v-2.07c0-.84-.34-1.28-.98-1.28-.54,0-.94.32-1.14.9v-.82h-1.28v.13h.55v3.14h-1.15v-3.26h-1.31v.13h.57v3.14h-.57v.13h3.72v-.13h-.52v-1.96c0-.55.43-1.16.86-1.16.3,0,.51.2.51.74v2.38h-.51v.13h3.66v-.13h-.56v-3.28Z"/><ellipse class="cls-2" cx="47.15" cy="10.67" rx=".47" ry=".48"/><path class="cls-2" d="M51.53,14.87c-.08.17-.19.27-.31.27s-.19-.09-.19-.27v-1.72c0-.86-.5-1.36-1.36-1.36-.68,0-1.15.32-1.15.82,0,.28.19.5.45.5.24,0,.42-.19.42-.42s-.17-.41-.42-.41c-.13,0-.23.06-.31.14.1-.28.44-.48.87-.48.51,0,.78.26.78.74v.56c-1.45.3-2.01.67-2.01,1.3,0,.51.36.81.96.81.5,0,.89-.21,1.04-.56.04.34.3.56.67.56.3,0,.51-.14.65-.44l-.09-.06h0ZM50.3,14.45c0,.37-.37.72-.77.72-.32,0-.49-.23-.49-.65,0-.59.34-.88,1.26-1.15,0,0,0,1.08,0,1.08Z"/></g></g></g></svg>