<?xml version="1.0" encoding="UTF-8"?><svg id="Layer_2" xmlns="http://www.w3.org/2000/svg" xmlns:xlink="http://www.w3.org/1999/xlink" viewBox="0 0 453.51 131.45"><defs><style>.cls-1{fill:none;}.cls-2{fill:url(#linear-gradient);}.cls-3{fill:#686969;}.cls-4{fill:#d47a28;}.cls-5{fill:#231f20;}.cls-6{fill:#626366;}.cls-7{clip-path:url(#clippath-4);}.cls-8{clip-path:url(#clippath-3);}.cls-9{clip-path:url(#clippath-7);}.cls-10{clip-path:url(#clippath-8);}.cls-11{clip-path:url(#clippath-6);}.cls-12{clip-path:url(#clippath-5);}.cls-13{fill:url(#linear-gradient-3);}.cls-14{fill:url(#linear-gradient-4);}.cls-15{fill:url(#linear-gradient-2);}.cls-16{fill:url(#linear-gradient-6);}.cls-17{fill:url(#linear-gradient-5);}</style><clipPath id="clippath-3"><path class="cls-1" d="M64.74,51.77c-3.62,.47-6.17,3.8-5.71,7.42,.47,3.63,3.8,6.18,7.42,5.7,.52-.07,1.01-.19,1.48-.36l.27-.11c.3-.09,.61-.17,.93-.22,2.89-.36,5.54,1.67,5.92,4.56,.1,.72,.04,1.43-.14,2.09l-.02,.02c-.39,1.42-.51,2.93-.31,4.47,.8,6.17,6.45,10.51,12.62,9.7,6.17-.8,10.51-6.45,9.71-12.62-.81-6.16-6.46-10.51-12.62-9.7-1.54,.2-2.98,.71-4.23,1.45l-.18,.08c-.55,.29-1.14,.48-1.79,.57-2.89,.38-5.54-1.66-5.92-4.56-.04-.29-.05-.58-.04-.87l.02-.07c.1-.6,.11-1.23,.02-1.87-.32-2.42-1.9-4.36-4-5.25-1.05-.44-2.22-.62-3.43-.46"/></clipPath><linearGradient id="linear-gradient" x1="-76.56" y1="150.32" x2="-75.56" y2="150.32" gradientTransform="translate(4053.99 7926.37) scale(52.26 -52.26)" gradientUnits="userSpaceOnUse"><stop offset="0" stop-color="#f05822"/><stop offset="1" stop-color="#f7991c"/></linearGradient><clipPath id="clippath-4"><path class="cls-1" d="M78.09,11.48c-6.17,.72-10.6,6.31-9.87,12.49,.18,1.54,.67,2.98,1.39,4.26h.03c.33,.62,.56,1.28,.64,2.01,.34,2.9-1.73,5.52-4.63,5.86-.32,.04-.64,.05-.95,.02l-.29-.04c-.5-.06-1-.06-1.52,0-3.63,.42-6.23,3.72-5.81,7.35,.42,3.64,3.71,6.23,7.35,5.81,3.63-.43,6.23-3.72,5.81-7.35-.07-.63-.24-1.24-.48-1.81l-.04-.06c-.08-.28-.14-.57-.17-.85-.34-2.9,1.74-5.53,4.63-5.86,.64-.07,1.28-.03,1.87,.11l.2,.03c1.41,.41,2.92,.56,4.46,.38,6.18-.72,10.59-6.31,9.88-12.49-.49-4.17-3.2-7.54-6.82-9.07-1.73-.73-3.67-1.04-5.68-.8"/></clipPath><linearGradient id="linear-gradient-2" x1="-76.57" y1="150.31" x2="-75.57" y2="150.31" gradientTransform="translate(4050.54 7887.83) scale(52.27 -52.27)" xlink:href="#linear-gradient"/><clipPath id="clippath-5"><path class="cls-1" d="M45.62,2.32c-4.93,3.78-5.87,10.84-2.09,15.78,.94,1.23,2.1,2.22,3.37,2.94l.17,.12c.52,.32,.99,.74,1.38,1.26,1.78,2.31,1.33,5.63-.98,7.41-.23,.18-.48,.34-.73,.47h-.08c-.57,.23-1.12,.54-1.63,.93-2.9,2.22-3.46,6.38-1.23,9.28,2.22,2.91,6.38,3.46,9.28,1.24,2.91-2.22,3.46-6.39,1.24-9.29-.32-.41-.67-.78-1.06-1.1l-.23-.18c-.23-.21-.44-.44-.64-.7-1.77-2.32-1.33-5.64,.99-7.41,.58-.44,1.22-.74,1.88-.92h.04c1.41-.36,2.79-1.01,4.02-1.96,4.94-3.78,5.88-10.84,2.09-15.78-1.23-1.61-2.81-2.79-4.55-3.52-3.6-1.52-7.9-1.12-11.23,1.43"/></clipPath><linearGradient id="linear-gradient-3" x1="-78.71" y1="150.83" x2="-77.71" y2="150.83" gradientTransform="translate(8135.79 -4172.71) rotate(-90) scale(53.62 -53.62)" gradientUnits="userSpaceOnUse"><stop offset="0" stop-color="#11bae6"/><stop offset="1" stop-color="#2a2c7a"/></linearGradient><clipPath id="clippath-6"><path class="cls-1" d="M32.5,40.69c-.52,.38-.96,.83-1.32,1.31l-.04,.07c-.19,.2-.42,.4-.66,.57-2.33,1.74-5.64,1.25-7.39-1.09-.39-.51-.67-1.09-.83-1.67l-.07-.19c-.35-1.42-.98-2.8-1.91-4.05-3.72-4.98-10.77-6.02-15.75-2.31-4.99,3.71-6.02,10.77-2.3,15.75,3.71,5,10.76,6.03,15.75,2.31,1.25-.93,2.25-2.06,2.99-3.33v-.04c.36-.59,.82-1.12,1.41-1.56,2.34-1.74,5.65-1.26,7.39,1.08,.2,.26,.36,.53,.49,.81l.12,.27c.2,.46,.45,.91,.76,1.32,2.18,2.93,6.33,3.55,9.27,1.35,2.92-2.18,3.54-6.33,1.35-9.27-.73-.98-1.68-1.7-2.73-2.14-2.09-.88-4.58-.67-6.54,.79"/></clipPath><linearGradient id="linear-gradient-4" x1="-78.72" y1="150.81" x2="-77.72" y2="150.81" gradientTransform="translate(8105.78 -4150.32) rotate(-90) scale(53.61 -53.61)" xlink:href="#linear-gradient-3"/><clipPath id="clippath-7"><path class="cls-1" d="M40.94,55.62c-3.38-1.41-7.25,.2-8.66,3.57-.2,.48-.33,.98-.42,1.46l-.04,.3c-.06,.3-.16,.6-.28,.9-1.12,2.7-4.21,3.97-6.91,2.85-.68-.28-1.26-.68-1.74-1.16v-.04c-1.04-1.04-2.29-1.91-3.73-2.5-5.74-2.39-12.33,.34-14.72,6.08-2.38,5.74,.34,12.32,6.08,14.71,5.74,2.39,12.33-.33,14.72-6.07,.6-1.44,.87-2.92,.86-4.39v-.2c.04-.62,.17-1.23,.42-1.84,1.11-2.69,4.21-3.97,6.89-2.85,.28,.11,.54,.25,.78,.4l.05,.05c.48,.39,1.02,.71,1.61,.96,3.38,1.4,7.26-.2,8.66-3.57,1.4-3.36-.18-7.23-3.54-8.64-.01,0-.02,0-.03-.01"/></clipPath><linearGradient id="linear-gradient-5" x1="-77.29" y1="152.42" x2="-76.29" y2="152.42" gradientTransform="translate(-3968.29 -7855.42) rotate(-180) scale(51.98 -51.98)" gradientUnits="userSpaceOnUse"><stop offset="0" stop-color="#74be44"/><stop offset="1" stop-color="#285529"/></linearGradient><clipPath id="clippath-8"><path class="cls-1" d="M46.86,65.27c-1.45,3.35,.1,7.25,3.46,8.7,.59,.25,1.2,.42,1.81,.49h.07c.28,.06,.56,.16,.82,.27,2.67,1.15,3.91,4.26,2.76,6.94-.26,.6-.62,1.12-1.04,1.56l-.12,.15c-1.06,1.01-1.94,2.25-2.56,3.68-2.46,5.71,.17,12.33,5.88,14.79,5.71,2.47,12.33-.17,14.79-5.88,2.46-5.71-.17-12.33-5.88-14.8-1.43-.61-2.92-.91-4.39-.92h-.03c-.69,0-1.38-.13-2.06-.42-2.67-1.16-3.91-4.26-2.76-6.94,.13-.29,.28-.58,.45-.83l.18-.23c.3-.4,.55-.84,.76-1.32,1.45-3.36-.1-7.25-3.46-8.7-.01,0-.02-.01-.04-.02-3.35-1.41-7.22,.13-8.67,3.48"/></clipPath><linearGradient id="linear-gradient-6" x1="-77.29" y1="152.43" x2="-76.29" y2="152.43" gradientTransform="translate(-3935.07 -7844.35) rotate(-180) scale(52.01 -52.01)" xlink:href="#linear-gradient-5"/></defs><g id="Layer_1-2"><g><g class="cls-8"><rect class="cls-2" x="50.91" y="47.71" width="51.98" height="44.62" transform="translate(-7.18 8.81) rotate(-6.26)"/></g><g class="cls-7"><rect class="cls-15" x="52.27" y="6.44" width="44.83" height="51.1" transform="translate(-3.04 8.34) rotate(-6.26)"/></g><g class="cls-12"><rect class="cls-13" x="23.49" y="-1.37" width="51.11" height="45.02" transform="translate(-2.75 34.18) rotate(-37.45)"/></g><g class="cls-11"><rect class="cls-14" x="-2.21" y="20.04" width="44.83" height="51.97" transform="translate(-23.82 21.77) rotate(-37.45)"/></g><g class="cls-9"><rect class="cls-17" x="5.6" y="49.87" width="35.96" height="35.88" transform="translate(-48.07 63.18) rotate(-67.13)"/></g><g class="cls-10"><rect class="cls-16" x="40.88" y="64.84" width="36.04" height="35.85" transform="translate(-40.25 104.87) rotate(-67.13)"/></g><g><path class="cls-3" d="M116.08,30.26h12.06v5.92h.18c2.56-4.27,6.12-7.07,11.33-7.07,.73,0,1.55,.08,2.28,.16v10.86c-1.28-.08-2.65-.16-3.93-.16-4.39,0-9.32,2.06-9.32,7.97v26.57h-12.61V30.26Z"/><path class="cls-3" d="M164.24,67.92c5.11,0,6.76-4.52,6.76-15.54s-1.65-15.54-6.76-15.54c-6.21,0-6.77,6.49-6.77,15.54s.55,15.54,6.77,15.54m0-38.81c15.17-.25,19.37,7.9,19.37,23.28s-4.94,23.27-19.37,23.27c-15.17,.25-19.37-7.89-19.37-23.27s4.94-23.28,19.37-23.28"/><path class="cls-3" d="M208.09,67.92c5.12,0,6.76-4.52,6.76-15.54s-1.64-15.54-6.76-15.54c-6.21,0-6.76,6.49-6.76,15.54s.54,15.54,6.76,15.54m0-38.81c15.17-.25,19.37,7.9,19.37,23.28s-4.93,23.27-19.37,23.27c-15.16,.25-19.37-7.89-19.37-23.27s4.93-23.28,19.37-23.28"/><path class="cls-3" d="M236.96,17.59h12.61v12.66h7.31v7.73h-7.31v23.93c0,3.45,.82,4.85,4.47,4.85,1.01,0,2-.08,2.84-.17v7.9c-2.75,.24-5.3,.49-8.22,.49-9.86,0-11.69-2.72-11.69-11.68v-25.33h-6.4v-7.73h6.4v-12.66Z"/><path class="cls-5" d="M272.32,52.79c-6.86-2.39-9.32-6.01-9.32-10.37,0-8.96,6.21-12.58,14.43-12.58,9.14,0,13.34,4.2,13.34,12.17v1.23h-5.49v-1.23c0-5.68-2.92-8.06-7.94-8.06-6.4,0-8.87,3.05-8.87,7.4,0,3.05,1.1,5.43,6.58,7.32l7.96,2.72c6.57,2.22,9.04,6.33,9.04,11.1,0,7.48-4.75,12.99-14.99,12.99s-14.89-3.7-14.89-13.57v-1.4h5.48v1.16c0,6.42,3.11,9.7,9.32,9.7,5.85,0,9.59-2.96,9.59-7.81,0-3.86-1.73-6.34-6.58-8.06l-7.67-2.71Z"/><path class="cls-5" d="M302.18,34.94h-6.66v-4.11h6.66v-12.09h5.48v12.09h8.59v4.11h-8.59v31.33c0,3.46,1.64,4.61,5.21,4.61,1.1,0,2.19-.16,3.38-.49v4.11c-.64,.33-2.01,.49-3.83,.49-7.41,0-10.24-1.81-10.24-7.65V34.94Z"/><path class="cls-5" d="M336.35,71.37c6.12,0,10.87-4.77,10.87-18.75s-4.74-18.66-10.87-18.66-10.87,4.77-10.87,18.66,4.75,18.75,10.87,18.75m0-41.53c10.68,0,16.72,7.65,16.72,22.78s-6.04,22.86-16.72,22.86-16.71-7.65-16.71-22.86,6.03-22.78,16.71-22.78"/><path class="cls-5" d="M390.25,60.02c-.82,9.29-6.48,15.46-15.44,15.46-10.23,0-16.26-6.41-16.26-22.87,0-15.13,6.03-22.77,16.71-22.77,9.14,0,14.44,5.01,14.98,13.98h-5.47c-.65-6.82-3.66-9.87-9.5-9.87s-10.87,3.29-10.87,18.75c0,16.44,5.2,18.66,10.32,18.66,5.58,0,9.14-3.7,10.06-11.35h5.47Z"/><polygon class="cls-5" points="397.5 15.78 402.98 15.78 402.98 52.54 403.17 52.54 421.98 30.83 428.74 30.83 414.12 47.03 431.39 74.5 424.63 74.5 410.19 51.47 402.98 59.2 402.98 74.5 397.5 74.5 397.5 15.78"/><path class="cls-5" d="M441.53,24.6h1.99c.95,0,1.6-.14,1.95-.42,.35-.29,.52-.67,.52-1.13,0-.3-.08-.57-.25-.81-.17-.24-.4-.42-.7-.53-.3-.11-.85-.18-1.65-.18h-1.87v3.07Zm-1.65,5.74v-10.2h3.5c1.2,0,2.06,.09,2.6,.28,.53,.19,.96,.51,1.28,.98,.32,.47,.48,.97,.48,1.5,0,.74-.27,1.39-.8,1.94-.54,.55-1.23,.86-2.11,.93,.36,.15,.65,.33,.87,.54,.41,.4,.91,1.07,1.5,2.02l1.24,2h-2.01l-.9-1.6c-.71-1.26-1.29-2.06-1.72-2.38-.3-.23-.74-.35-1.32-.35h-.97v4.34h-1.65Zm4.16-13.15c-1.33,0-2.63,.34-3.89,1.03-1.27,.68-2.24,1.66-2.96,2.93-.71,1.27-1.07,2.59-1.07,3.96s.35,2.67,1.05,3.92c.7,1.25,1.68,2.23,2.93,2.93,1.25,.7,2.56,1.05,3.93,1.05s2.67-.35,3.93-1.05c1.25-.7,2.23-1.68,2.92-2.93,.7-1.25,1.04-2.56,1.04-3.92s-.35-2.69-1.06-3.96c-.71-1.27-1.69-2.25-2.95-2.93-1.27-.68-2.56-1.03-3.88-1.03m0-1.56c1.59,0,3.14,.4,4.66,1.22,1.51,.82,2.7,1.99,3.54,3.51,.85,1.52,1.27,3.1,1.27,4.75s-.42,3.2-1.25,4.71c-.83,1.51-2,2.68-3.49,3.51-1.51,.83-3.08,1.25-4.72,1.25s-3.21-.42-4.72-1.25c-1.5-.83-2.67-2-3.51-3.51-.83-1.51-1.25-3.08-1.25-4.71s.42-3.23,1.27-4.75c.86-1.52,2.04-2.69,3.55-3.51,1.52-.82,3.07-1.22,4.66-1.22"/></g><rect class="cls-6" x="116.08" y="89.72" width="315.31" height="2.4"/><g><path class="cls-4" d="M295.16,130.98v-28.86h10.89c1.92,0,3.38,.09,4.39,.28,1.42,.24,2.61,.69,3.56,1.35s1.73,1.59,2.31,2.79c.58,1.19,.88,2.51,.88,3.94,0,2.45-.78,4.53-2.34,6.23-1.56,1.7-4.38,2.55-8.47,2.55h-7.4v11.73h-3.82Zm3.82-15.14h7.46c2.47,0,4.22-.46,5.26-1.38,1.04-.92,1.56-2.21,1.56-3.88,0-1.21-.31-2.24-.92-3.1-.61-.86-1.41-1.43-2.41-1.7-.64-.17-1.83-.26-3.56-.26h-7.38v10.32Z"/><path class="cls-4" d="M336.25,128.4c-1.31,1.12-2.58,1.9-3.79,2.36-1.21,.46-2.52,.69-3.91,.69-2.3,0-4.06-.56-5.3-1.68-1.23-1.12-1.85-2.56-1.85-4.3,0-1.02,.23-1.96,.7-2.81,.47-.85,1.08-1.53,1.83-2.04,.75-.51,1.6-.9,2.55-1.16,.7-.18,1.75-.36,3.15-.53,2.86-.34,4.97-.75,6.32-1.22,.01-.49,.02-.79,.02-.93,0-1.44-.33-2.46-1-3.05-.91-.8-2.25-1.2-4.04-1.2-1.67,0-2.9,.29-3.69,.88-.79,.58-1.38,1.62-1.76,3.1l-3.46-.47c.31-1.48,.83-2.68,1.56-3.59,.72-.91,1.76-1.61,3.13-2.11,1.37-.49,2.95-.74,4.75-.74s3.24,.21,4.35,.63,1.94,.95,2.46,1.58c.53,.64,.89,1.44,1.1,2.41,.12,.6,.18,1.69,.18,3.27v4.73c0,3.29,.08,5.38,.23,6.25,.15,.87,.45,1.71,.9,2.51h-3.7c-.37-.74-.6-1.59-.71-2.58Zm-.29-7.92c-1.29,.53-3.22,.97-5.79,1.34-1.46,.21-2.49,.45-3.09,.71s-1.07,.65-1.4,1.15c-.33,.5-.49,1.07-.49,1.68,0,.95,.36,1.73,1.07,2.36,.72,.63,1.76,.94,3.14,.94s2.58-.3,3.64-.9c1.06-.6,1.84-1.41,2.34-2.45,.38-.8,.57-1.98,.57-3.54v-1.3Z"/><path class="cls-4" d="M346,130.98v-20.91h3.19v3.17c.81-1.48,1.57-2.46,2.25-2.93,.69-.47,1.45-.71,2.27-.71,1.19,0,2.41,.38,3.64,1.14l-1.22,3.29c-.87-.51-1.73-.77-2.6-.77-.77,0-1.47,.23-2.09,.7-.62,.47-1.06,1.11-1.32,1.94-.39,1.26-.59,2.64-.59,4.13v10.95h-3.54Z"/><path class="cls-4" d="M368.21,127.81l.51,3.13c-1,.21-1.89,.31-2.68,.31-1.29,0-2.28-.2-2.99-.61-.71-.41-1.21-.94-1.5-1.6-.29-.66-.43-2.06-.43-4.18v-12.03h-2.6v-2.76h2.6v-5.18l3.52-2.13v7.3h3.56v2.76h-3.56v12.23c0,1.01,.06,1.66,.19,1.95,.12,.29,.33,.52,.61,.69,.28,.17,.69,.26,1.21,.26,.39,0,.91-.05,1.56-.14Z"/><path class="cls-4" d="M372.68,130.98v-20.91h3.19v2.97c1.54-2.3,3.75-3.45,6.65-3.45,1.26,0,2.42,.23,3.47,.68,1.06,.45,1.85,1.05,2.37,1.78,.52,.74,.89,1.61,1.1,2.62,.13,.66,.2,1.8,.2,3.45v12.86h-3.54v-12.72c0-1.44-.14-2.52-.41-3.24s-.76-1.29-1.47-1.71c-.7-.43-1.53-.64-2.47-.64-1.51,0-2.81,.48-3.91,1.44-1.1,.96-1.64,2.78-1.64,5.45v11.42h-3.54Z"/><path class="cls-4" d="M410.43,124.24l3.66,.45c-.58,2.14-1.65,3.8-3.21,4.98-1.56,1.18-3.56,1.77-5.99,1.77-3.06,0-5.48-.94-7.27-2.83s-2.69-4.53-2.69-7.92,.91-6.25,2.72-8.19c1.81-1.94,4.16-2.91,7.05-2.91s5.08,.95,6.85,2.85c1.77,1.9,2.66,4.58,2.66,8.03,0,.21,0,.53-.02,.95h-15.59c.13,2.3,.78,4.06,1.95,5.28,1.17,1.22,2.62,1.83,4.37,1.83,1.3,0,2.41-.34,3.33-1.02,.92-.68,1.65-1.77,2.18-3.27Zm-11.63-5.73h11.67c-.16-1.76-.6-3.08-1.34-3.96-1.13-1.37-2.59-2.05-4.39-2.05-1.63,0-3,.54-4.1,1.63-1.11,1.09-1.72,2.55-1.84,4.37Z"/><path class="cls-4" d="M419.51,130.98v-20.91h3.19v3.17c.81-1.48,1.57-2.46,2.25-2.93,.69-.47,1.45-.71,2.27-.71,1.19,0,2.41,.38,3.64,1.14l-1.22,3.29c-.87-.51-1.73-.77-2.6-.77-.77,0-1.47,.23-2.09,.7-.62,.47-1.06,1.11-1.32,1.94-.39,1.26-.59,2.64-.59,4.13v10.95h-3.54Z"/></g></g></g></svg>